<?xml version="1.0" encoding="utf-8"?>
<!-- Generator: Adobe Illustrator 16.0.0, SVG Export Plug-In . SVG Version: 6.00 Build 0)  -->
<!DOCTYPE svg PUBLIC "-//W3C//DTD SVG 1.1//EN" "http://www.w3.org/Graphics/SVG/1.1/DTD/svg11.dtd">
<svg version="1.1" id="Layer_1" xmlns="http://www.w3.org/2000/svg" xmlns:xlink="http://www.w3.org/1999/xlink" x="0px" y="0px"
	 width="152.718px" height="74.887px" viewBox="0 0 152.718 74.887" enable-background="new 0 0 152.718 74.887"
	 xml:space="preserve">
<g id="XMLID_19_">
	<g>
		<path fill="#DAD9DA" d="M42.845,14.437c4.111-9.318,54.09-32.28,80.08,12.7l0.1,0.77c8.643-1.408,16.98,3.78,20.4,18.23
			l-0.059,0.14c10.359,4.851,13.77,22.261,0.059,28.36h-135c-8.77,0-15.23-29.23,6.59-35.74l-0.139-0.479
			C13.576,32.797,20.255,8.957,42.845,14.437z"/>
	</g>
	<g>
		<path fill="none" stroke="#4C4A4C" stroke-miterlimit="10" d="M42.845,14.437c-22.59-5.479-29.27,18.36-27.969,23.98"/>
		<path fill="none" stroke="#4C4A4C" stroke-miterlimit="10" d="M51.425,17.637c-3.09-1.52-5.939-2.56-8.58-3.19"/>
		<line fill="none" stroke="#4C4A4C" stroke-miterlimit="10" x1="42.845" y1="14.437" x2="42.845" y2="14.447"/>
		<path fill="none" stroke="#4C4A4C" stroke-miterlimit="10" d="M143.425,46.137c-3.42-14.45-11.76-19.64-20.4-18.23
			c-2.719,0.45-5.469,1.552-8.1,3.23"/>
		<path fill="none" stroke="#4C4A4C" stroke-miterlimit="10" d="M8.425,74.637h135c13.711-6.1,10.301-23.51-0.059-28.36
			c-3.24-1.52-7.15-1.81-11.441-0.14"/>
	</g>
</g>
</svg>
