<svg id="Layer_1" data-name="Layer 1" xmlns="http://www.w3.org/2000/svg" xmlns:xlink="http://www.w3.org/1999/xlink" viewBox="0 0 183.66 101.2"><defs><style>.cls-1{fill:none;}.cls-2{clip-path:url(#clip-path);}.cls-3{fill:#fff;}</style><clipPath id="clip-path" transform="translate(-98.01 -112.51)"><rect class="cls-1" width="400" height="400"/></clipPath></defs><title>EV</title><g class="cls-2"><g class="cls-2"><path class="cls-3" d="M254.38,157.62c-14.65-2.1-27.86-36.21-36.94-39.68-14-5.35-70.06-8.92-95.54,0s-27.84,80.66-19.75,84.71c2.68,1.34,12.61,2.2,26.47,2.7a16.56,16.56,0,1,1,30.93.54c16.81,0.07,35.25-.11,52.42-0.46a16.55,16.55,0,1,1,31.38-.87c15.6-.57,27.36-1.25,31.42-1.91,15.1-2.46,4.15-41.51-20.38-45" transform="translate(-98.01 -112.51)"/><path class="cls-3" d="M157.41,200.29A13.41,13.41,0,1,0,144,213.71a13.41,13.41,0,0,0,13.41-13.41" transform="translate(-98.01 -112.51)"/><path class="cls-3" d="M241.39,200.29A13.41,13.41,0,1,0,228,213.71a13.41,13.41,0,0,0,13.41-13.41" transform="translate(-98.01 -112.51)"/></g></g></svg>