<svg id="Layer_1" data-name="Layer 1" xmlns="http://www.w3.org/2000/svg" xmlns:xlink="http://www.w3.org/1999/xlink" viewBox="0 0 272.32 268.93"><defs><style>.cls-1,.cls-3{fill:none;}.cls-2{clip-path:url(#clip-path);}.cls-3{stroke:#fff;stroke-miterlimit:10;stroke-width:2px;}.cls-4{fill:#fff;}</style><clipPath id="clip-path" transform="translate(-46.89 -55.35)"><rect class="cls-1" width="400" height="400"/></clipPath></defs><title>hvac</title><g class="cls-2"><g class="cls-2"><path class="cls-3" d="M194.15,176.62c-0.45-40.12-6.37-84.08,0-101.27S262.3,39,296.69,84.9s21.66,79,2.55,94.91C288.15,189.05,194.25,185.57,194.15,176.62Z" transform="translate(-46.89 -55.35)"/><path class="cls-3" d="M184.54,179.23c-34.53,20.45-69.63,47.55-87.71,50.64s-65.52-40.87-43-93.59S111.41,78,134.75,86.62C148.3,91.6,192.24,174.67,184.54,179.23Z" transform="translate(-46.89 -55.35)"/><path class="cls-3" d="M192.76,187.54c35,19.67,76,36.52,87.71,50.64s-2.64,77.17-59.55,84S141.69,301.48,137.46,277C135,262.74,185,183.16,192.76,187.54Z" transform="translate(-46.89 -55.35)"/><path class="cls-4" d="M204.06,182.26a15,15,0,1,1-15-15,15,15,0,0,1,15,15" transform="translate(-46.89 -55.35)"/></g></g></svg>