<svg id="Layer_1" data-name="Layer 1" xmlns="http://www.w3.org/2000/svg" viewBox="0 0 319.56 240.81"><defs><style>.cls-1{fill:#fff;}.cls-2{fill:none;stroke:#231f20;stroke-miterlimit:10;}</style></defs><title>kitchen</title><path class="cls-1" d="M55.53,97.71c0,17.53-2.09,73.7,21.94,74.43,22.7,0.69,22-23.51,21.18-76-0.36-23.92-6.93-18.5-6.63-1,0.65,38.16-.35,43.67-5.85,43.49-5.17-.17-6.33-6.67-7.3-41.46-0.73-26-6.43-19.15-6.09.51,0.72,41-2.44,41.62-5.11,41.45-2.19-.14-5.33-1.67-6.06-43C61.27,76.52,55.53,73.65,55.53,97.71Z" transform="translate(-55.48 -80.12)"/><path class="cls-1" d="M64.07,159c3.52,4.25,6.49,4.87,8.59,39.78,2.6,43-3.65,106.49-2.73,114.53s18.81,11.25,18.81-.4-6-72.32-5.51-114.92c0.4-34.42,1.32-32.34,7.36-39.39" transform="translate(-55.48 -80.12)"/><path class="cls-1" d="M359.3,81c-7.77,0-11.51,5.8-11.51,43.35,0,38.46,4,56.77,11.51,62.88s5.18,20.14,3.45,28.69-2.88,91.57-1.73,98.9,11.51,9.16,12.66-.61,0.36-91.67.39-97.68C374.65,82.83,379.72,81,359.3,81Z" transform="translate(-55.48 -80.12)"/><circle class="cls-1" cx="163.83" cy="123.88" r="101"/><circle class="cls-2" cx="163.83" cy="123.88" r="81.81"/></svg>