<svg id="Layer_1" data-name="Layer 1" xmlns="http://www.w3.org/2000/svg" xmlns:xlink="http://www.w3.org/1999/xlink" viewBox="0 0 101.35 286.27"><defs><style>.cls-1{fill:none;}.cls-2{clip-path:url(#clip-path);}.cls-3{fill:#fff;}</style><clipPath id="clip-path" transform="translate(-119.48 -51.43)"><rect class="cls-1" width="400" height="400"/></clipPath></defs><title>plugs</title><g class="cls-2"><g class="cls-2"><path class="cls-3" d="M126.38,147.88c11.17-.69,23.89-25.48,44.59-25.48,22.33,0,32.76,25.3,44.2,25.48,7.83,0.12,7.25,59,0,84.08-9.34,32.38-21.84,25.38-24.4,33.93-1.54,5.14-7.18,44.7-7.79,71.82l-9.75-.65h-9.06c1-28.54-7.3-68.85-10.38-71.5-9.07-7.8-15.42-1.55-27.41-29.78-4.89-11.53-12.72-87.11,0-87.9" transform="translate(-119.48 -51.43)"/><path class="cls-3" d="M132.54,147c0.8-68.43-.2-78.83,6.27-78.83,5.86,0,5.29,5.33,5.29,69" transform="translate(-119.48 -51.43)"/><path class="cls-3" d="M165.24,123.78c-0.17-64.12-1.24-72.35,7-72.35,8.44,0,7.81,5.57,7.81,73" transform="translate(-119.48 -51.43)"/><path class="cls-3" d="M209.33,148.33C210.12,77,213,68.17,204.19,68.17c-6.19,0-5.55,6.83-5.55,68.29" transform="translate(-119.48 -51.43)"/></g></g></svg>