<svg id="Layer_1" data-name="Layer 1" xmlns="http://www.w3.org/2000/svg" xmlns:xlink="http://www.w3.org/1999/xlink" viewBox="0 0 305.46 289.5"><defs><style>.cls-1,.cls-4{fill:none;}.cls-2{clip-path:url(#clip-path);}.cls-3{fill:#fff;}.cls-4{stroke:#fff;stroke-linecap:round;stroke-miterlimit:10;stroke-width:2px;}</style><clipPath id="clip-path" transform="translate(-43.96 -34.18)"><rect class="cls-1" width="400" height="400"/></clipPath></defs><title>sun</title><g class="cls-2"><g class="cls-2"><path class="cls-3" d="M282.05,181.2a84.7,84.7,0,1,1-84.7-84.7,84.7,84.7,0,0,1,84.7,84.7" transform="translate(-43.96 -34.18)"/><line class="cls-4" x1="96.58" y1="55.17" x2="74.54" y2="17"/><line class="cls-4" x1="58.98" y1="96.64" x2="23.26" y2="76.01"/><line class="cls-4" x1="44.33" y1="147.21" x2="1" y2="147.21"/><line class="cls-4" x1="61.84" y1="204.03" x2="26.87" y2="224.22"/><line class="cls-4" x1="103.31" y1="241.63" x2="82.11" y2="278.34"/><line class="cls-4" x1="153.88" y1="256.28" x2="153.88" y2="288.5"/><line class="cls-4" x1="211.22" y1="240.58" x2="223.85" y2="262.45"/><line class="cls-4" x1="248.82" y1="199.11" x2="283.65" y2="219.22"/><line class="cls-4" x1="263.46" y1="148.54" x2="304.46" y2="148.54"/><line class="cls-4" x1="245.92" y1="91.62" x2="281.08" y2="71.32"/><line class="cls-4" x1="204.46" y1="54.02" x2="217.09" y2="32.15"/><line class="cls-4" x1="153.88" y1="39.38" x2="153.88" y2="1"/></g></g></svg>