<?xml version="1.0" encoding="utf-8"?>
<!-- Generator: Adobe Illustrator 16.0.0, SVG Export Plug-In . SVG Version: 6.00 Build 0)  -->
<!DOCTYPE svg PUBLIC "-//W3C//DTD SVG 1.1//EN" "http://www.w3.org/Graphics/SVG/1.1/DTD/svg11.dtd">
<svg version="1.1" id="Layer_1" xmlns="http://www.w3.org/2000/svg" xmlns:xlink="http://www.w3.org/1999/xlink" x="0px" y="0px"
	 width="88px" height="136.908px" viewBox="0 0 88 136.908" enable-background="new 0 0 88 136.908" xml:space="preserve">
<g>
	<line fill="none" stroke="#E1E0E2" stroke-miterlimit="10" x1="14.5" y1="136.204" x2="14.5" y2="93.204"/>
	<line fill="none" stroke="#E1E0E2" stroke-miterlimit="10" x1="73.5" y1="136.204" x2="73.5" y2="93.204"/>
	<line fill="none" stroke="#E1E0E2" stroke-miterlimit="10" x1="14.071" y1="93.047" x2="72.16" y2="33.084"/>
	<line fill="none" stroke="#E1E0E2" stroke-miterlimit="10" x1="74.325" y1="93.047" x2="16.957" y2="33.829"/>
	<line fill="none" stroke="#E1E0E2" stroke-miterlimit="10" x1="0" y1="12.704" x2="17" y2="12.704"/>
	<line fill="none" stroke="#E1E0E2" stroke-miterlimit="10" x1="71" y1="12.704" x2="88" y2="12.704"/>
	<line fill="none" stroke="#E1E0E2" stroke-miterlimit="10" x1="14.071" y1="136.704" x2="44.787" y2="61.34"/>
	<line fill="none" stroke="#E1E0E2" stroke-miterlimit="10" x1="44.026" y1="61.771" x2="74.325" y2="135.982"/>
	<line fill="none" stroke="#E1E0E2" stroke-miterlimit="10" x1="16.5" y1="34.204" x2="16.5" y2="0.204"/>
	<line fill="none" stroke="#E1E0E2" stroke-miterlimit="10" x1="0.5" y1="25.204" x2="0.5" y2="13.204"/>
	<line fill="none" stroke="#E1E0E2" stroke-miterlimit="10" x1="87.5" y1="25.204" x2="87.5" y2="13.204"/>
	<line fill="none" stroke="#E1E0E2" stroke-miterlimit="10" x1="71.5" y1="34.204" x2="71.5" y2="0.204"/>
	<line fill="none" stroke="#E1E0E2" stroke-miterlimit="10" x1="16.598" y1="0.682" x2="71.764" y2="25.354"/>
	<line fill="none" stroke="#E1E0E2" stroke-miterlimit="10" x1="17.146" y1="25.216" x2="71.439" y2="0.439"/>
	<line fill="none" stroke="#E1E0E2" stroke-miterlimit="10" x1="17" y1="12.704" x2="72" y2="12.704"/>
	<line fill="none" stroke="#E1E0E2" stroke-miterlimit="10" x1="30" y1="62.704" x2="58" y2="62.704"/>
	<line fill="none" stroke="#E1E0E2" stroke-miterlimit="10" x1="31" y1="94.704" x2="58" y2="94.704"/>
	<line fill="none" stroke="#E1E0E2" stroke-miterlimit="10" x1="57.5" y1="63.204" x2="57.5" y2="95.204"/>
	<line fill="none" stroke="#E1E0E2" stroke-miterlimit="10" x1="30.5" y1="63.204" x2="30.5" y2="95.204"/>
	<line fill="none" stroke="#E1E0E2" stroke-miterlimit="10" x1="16.957" y1="34.597" x2="30.668" y2="62.739"/>
	<line fill="none" stroke="#E1E0E2" stroke-miterlimit="10" x1="57.729" y1="62.379" x2="71.8" y2="33.457"/>
	<line fill="none" stroke="#E1E0E2" stroke-miterlimit="10" x1="14.071" y1="93.047" x2="30.668" y2="62.739"/>
	<line fill="none" stroke="#E1E0E2" stroke-miterlimit="10" x1="57.367" y1="62.739" x2="74.325" y2="93.047"/>
</g>
</svg>
