<?xml version="1.0" encoding="utf-8"?>
<!-- Generator: Adobe Illustrator 16.0.0, SVG Export Plug-In . SVG Version: 6.00 Build 0)  -->
<!DOCTYPE svg PUBLIC "-//W3C//DTD SVG 1.1//EN" "http://www.w3.org/Graphics/SVG/1.1/DTD/svg11.dtd">
<svg version="1.1" id="Layer_1" xmlns="http://www.w3.org/2000/svg" xmlns:xlink="http://www.w3.org/1999/xlink" x="0px" y="0px"
	 width="19.232px" height="7.747px" viewBox="0 0 19.232 7.747" enable-background="new 0 0 19.232 7.747" xml:space="preserve">
<g>
	<g>
		<path fill="none" stroke="#C0E5E7" stroke-miterlimit="10" d="M9.646,7.484c0.133-2.762,4-11.293,9.199-4.895"/>
		<path fill="none" stroke="#C0E5E7" stroke-miterlimit="10" d="M9.646,7.484c0.104-2.762,3.047-11.293,7.008-4.895"/>
		<path fill="none" stroke="#C0E5E7" stroke-miterlimit="10" d="M9.646,7.484c0.068-2.762,2.062-11.293,4.742-4.895"/>
		<path fill="none" stroke="#C0E5E7" stroke-miterlimit="10" d="M9.646,7.484c0.041-2.762,1.25-11.293,2.875-4.895"/>
		<path fill="none" stroke="#C0E5E7" stroke-miterlimit="10" d="M9.646,7.484c0.014-2.762,0.438-11.293,1.008-4.895"/>
		<path fill="none" stroke="#C0E5E7" stroke-miterlimit="10" d="M9.189,7.484C9.191,4.722,9.271-3.809,9.378,2.589"/>
	</g>
	<g>
		<path fill="none" stroke="#C0E5E7" stroke-miterlimit="10" d="M9.589,7.484c-0.135-2.762-4-11.293-9.201-4.895"/>
		<path fill="none" stroke="#C0E5E7" stroke-miterlimit="10" d="M9.589,7.484C9.486,4.722,6.54-3.809,2.579,2.589"/>
		<path fill="none" stroke="#C0E5E7" stroke-miterlimit="10" d="M9.589,7.484C9.521,4.722,7.527-3.809,4.847,2.589"/>
		<path fill="none" stroke="#C0E5E7" stroke-miterlimit="10" d="M9.589,7.484C9.548,4.722,8.337-3.809,6.712,2.589"/>
		<path fill="none" stroke="#C0E5E7" stroke-miterlimit="10" d="M9.589,7.484C9.572,4.722,9.15-3.809,8.579,2.589"/>
		<path fill="none" stroke="#C0E5E7" stroke-miterlimit="10" d="M10.044,7.484C10.042,4.722,9.962-3.809,9.856,2.589"/>
	</g>
</g>
</svg>
