<?xml version="1.0" encoding="utf-8"?>
<!-- Generator: Adobe Illustrator 16.0.0, SVG Export Plug-In . SVG Version: 6.00 Build 0)  -->
<!DOCTYPE svg PUBLIC "-//W3C//DTD SVG 1.1//EN" "http://www.w3.org/Graphics/SVG/1.1/DTD/svg11.dtd">
<svg version="1.1" id="Layer_1" xmlns="http://www.w3.org/2000/svg" xmlns:xlink="http://www.w3.org/1999/xlink" x="0px" y="0px"
	 width="310.48px" height="70.408px" viewBox="0 0 310.48 70.408" enable-background="new 0 0 310.48 70.408" xml:space="preserve">
<g id="XMLID_92_">
	<g>
		<polygon fill="#0A0E42" points="270.987,4.664 306.827,66.64 242.955,66.64 242.955,66.424 207.228,4.664 207.228,4.616 		"/>
		<polygon fill="#E9E9EA" points="269.891,0.408 310.371,70.408 40.292,70.408 40.292,70.16 39.987,69.624 39.978,69.624 
			8.978,16.009 9.091,16.009 10.226,15.353 39.89,66.64 104.226,66.64 109.434,66.64 171.115,66.64 176.243,66.64 237.475,66.64 
			242.955,66.64 306.827,66.64 270.987,4.664 268.812,0.896 268.812,0.017 269.891,0.017 		"/>
		<polygon fill="#E9E9EA" points="242.955,66.424 242.955,66.64 237.475,66.64 237.475,66.424 201.763,4.664 201.763,4.616 
			207.228,4.616 207.228,4.664 		"/>
		<polygon fill="#0A0E42" points="237.475,66.424 237.475,66.64 176.243,66.64 140.394,4.664 140.394,4.568 201.763,4.616 
			201.763,4.664 		"/>
		<polygon fill="#E9E9EA" points="140.394,4.664 176.243,66.64 171.115,66.64 135.266,4.664 135.266,4.561 140.394,4.568 		"/>
		<polygon fill="#0A0E42" points="171.115,66.64 109.434,66.64 73.89,4.664 73.89,4.521 135.266,4.561 135.266,4.664 		"/>
		<polygon fill="#E9E9EA" points="73.89,4.664 109.434,66.64 104.226,66.64 104.226,66.424 68.514,4.664 68.514,4.513 73.89,4.521 
					"/>
		<polygon fill="#0A0E42" points="104.226,66.424 104.226,66.64 39.89,66.64 10.226,15.353 3.93,4.465 68.514,4.513 68.514,4.664 		
			"/>
		<polygon fill="#938E93" points="39.978,69.624 39.491,69.912 -0.11,16.145 -0.11,16.009 8.978,16.009 		"/>
		<polygon fill="#E9E9EA" points="8.978,16.009 -0.11,0.296 -0.11,0 268.812,0.017 268.812,0.896 270.987,4.664 207.228,4.616 
			201.763,4.616 140.394,4.568 135.266,4.561 73.89,4.521 68.514,4.513 3.93,4.465 10.226,15.353 9.091,16.009 		"/>
		<polygon fill="#393139" points="8.978,16.009 -0.11,16.009 -0.11,0.296 		"/>
	</g>
</g>
</svg>
