<?xml version="1.0" encoding="utf-8"?>
<!-- Generator: Adobe Illustrator 19.2.1, SVG Export Plug-In . SVG Version: 6.00 Build 0)  -->
<svg version="1.1" id="Layer_1" xmlns="http://www.w3.org/2000/svg" xmlns:xlink="http://www.w3.org/1999/xlink" x="0px" y="0px"
	 viewBox="0 0 352.7 126" style="enable-background:new 0 0 352.7 126;" xml:space="preserve">
<style type="text/css">
	.st0{fill:#0A0E42;}
	.st1{fill:#E9E9EA;}
	.st2{fill:#938E93;}
	.st3{fill:#4C424C;}
</style>
<g id="XMLID_89_">
	<g>
		<polygon class="st0" points="271.6,4.4 307.4,66.4 243.5,66.4 243.5,66.2 207.8,4.4 207.8,4.4 		"/>
		<polygon class="st1" points="243.5,66.2 243.5,66.4 238.1,66.4 238.1,66.2 202.3,4.4 202.3,4.4 207.8,4.4 207.8,4.4 		"/>
		<polygon class="st0" points="238.1,66.2 238.1,66.4 176.8,66.4 141,4.4 141,4.3 202.3,4.4 202.3,4.4 		"/>
		<polygon class="st1" points="141,4.4 176.8,66.4 171.7,66.4 135.8,4.4 135.8,4.3 141,4.3 		"/>
		<polygon class="st0" points="171.7,66.4 110,66.4 74.5,4.4 74.5,4.3 135.8,4.3 135.8,4.4 		"/>
		<polygon class="st1" points="74.5,4.4 110,66.4 104.8,66.4 104.8,66.2 69.1,4.4 69.1,4.3 74.5,4.3 		"/>
		<polygon class="st0" points="104.8,66.2 104.8,66.4 40.5,66.4 11.2,15.8 4.5,4.2 69.1,4.3 69.1,4.4 		"/>
		<polygon class="st2" points="40.7,70.3 40.3,70.6 0.6,16.6 0.7,16.6 9.7,16.6 		"/>
		<polygon class="st1" points="171.7,66.4 176.8,66.4 238.1,66.4 243.5,66.4 307.4,66.4 307.7,67 308.5,66.5 311.1,71 41.1,71 
			41.1,70.8 40.7,70.3 40.7,70.3 9.7,16.6 9.9,16.6 11.2,15.8 40.5,66.4 104.8,66.4 110,66.4 		"/>
		<polygon class="st1" points="270.7,1 308.5,66.5 307.7,67 307.4,66.4 271.6,4.4 207.8,4.4 202.3,4.4 141,4.3 135.8,4.3 74.5,4.3 
			69.1,4.3 4.5,4.2 11.2,15.8 9.9,16.6 9.7,16.6 0.7,0.9 0.7,0.6 270.7,0.7 		"/>
		<polygon class="st3" points="9.7,16.6 0.7,16.6 0.7,0.9 		"/>
	</g>
	<g>
	</g>
</g>
<g id="XMLID_87_">
	<g>
		<path class="st1" d="M347.2,121.2l-35.8-62L219,59v0.6l35.6,61.6H347.2z M311.8,55.4L352,125h-98.8l-0.2,0.1l-0.1-0.1h0L221.7,71
			l-8.8-15.2v-0.3L311.8,55.4z"/>
		<polygon class="st0" points="347.2,121.2 254.6,121.2 219,59.6 219,59 311.4,59.2 		"/>
		<polygon class="st2" points="252.9,125.1 252.5,125.4 212.9,71.6 212.9,71 221.5,71 221.7,71 		"/>
		<polygon class="st3" points="212.9,55.7 221.7,71 221.5,71 212.9,71 		"/>
	</g>
	<g>
	</g>
</g>
</svg>
