<?xml version="1.0" encoding="utf-8"?>
<!-- Generator: Adobe Illustrator 16.0.0, SVG Export Plug-In . SVG Version: 6.00 Build 0)  -->
<!DOCTYPE svg PUBLIC "-//W3C//DTD SVG 1.1//EN" "http://www.w3.org/Graphics/SVG/1.1/DTD/svg11.dtd">
<svg version="1.1" id="Layer_1" xmlns="http://www.w3.org/2000/svg" xmlns:xlink="http://www.w3.org/1999/xlink" x="0px" y="0px"
	 width="180.328px" height="124.312px" viewBox="0 0 180.328 124.312" enable-background="new 0 0 180.328 124.312"
	 xml:space="preserve">
<g>
	<g id="XMLID_91_">
		<g>
			<polygon fill="#0A0E42" points="98.602,3.784 134.449,65.768 41.856,65.768 6.24,4.192 6.24,3.585 			"/>
			<path fill="#E9E9EA" d="M40.232,69.752l-0.07-0.128h-0.009l-31-53.616L0.064,0.296V0L99.77,0.008l40.168,69.456l-0.271,0.15
				h-99.2L40.232,69.752z M134.449,65.768L98.6,3.784L6.24,3.586v0.606l35.614,61.576H134.449L134.449,65.768z"/>
			<polygon fill="#938E93" points="40.152,69.624 39.665,69.912 0.145,16.249 0.465,16.009 9.152,16.009 			"/>
			<polygon fill="#4C424C" points="0.064,16.009 0.064,0.297 9.152,16.009 0.465,16.009 0.145,16.249 0,16.056 			"/>
		</g>
	</g>
	<g id="XMLID_90_">
		<g>
			<polygon fill="#0A0E42" points="139.152,58.304 174.992,120.289 82.408,120.289 46.784,58.713 46.784,58.104 			"/>
			<path fill="#E9E9EA" d="M49.552,70.408l-9.088-15.713v-0.296l99.704,0.009l40.16,69.447l-0.266,0.152H80.864l-0.24,0.136
				l-0.064-0.12h-0.008L49.552,70.408z M82.408,120.289h92.584L139.15,58.304l-92.366-0.2v0.608L82.408,120.289z"/>
			<polygon fill="#938E93" points="80.552,124.024 80.064,124.312 40.544,70.648 40.864,70.408 49.552,70.408 			"/>
			<polygon fill="#4C424C" points="40.864,70.408 40.544,70.648 40.4,70.455 40.465,70.408 40.465,54.695 49.552,70.408 			"/>
		</g>
	</g>
</g>
</svg>
