<?xml version="1.0" encoding="utf-8"?>
<!-- Generator: Adobe Illustrator 19.2.1, SVG Export Plug-In . SVG Version: 6.00 Build 0)  -->
<svg version="1.1" id="Layer_1" xmlns="http://www.w3.org/2000/svg" xmlns:xlink="http://www.w3.org/1999/xlink" x="0px" y="0px"
	 viewBox="0 0 310.6 70.4" style="enable-background:new 0 0 310.6 70.4;" xml:space="preserve">
<style type="text/css">
	.st0{fill:#0A0E42;}
	.st1{fill:#E9E9EA;}
	.st2{fill:#938E93;}
	.st3{fill:#4C424C;}
</style>
<g id="XMLID_89_">
	<g>
		<polygon class="st0" points="271,3.8 306.8,65.8 243,65.8 243,65.5 207.2,3.8 207.2,3.7 		"/>
		<polygon class="st1" points="243,65.5 243,65.8 237.5,65.8 237.5,65.5 201.8,3.8 201.8,3.7 207.2,3.7 207.2,3.8 		"/>
		<polygon class="st0" points="237.5,65.5 237.5,65.8 176.3,65.8 140.4,3.8 140.4,3.7 201.8,3.7 201.8,3.8 		"/>
		<polygon class="st1" points="140.4,3.8 176.3,65.8 171.1,65.8 135.3,3.8 135.3,3.7 140.4,3.7 		"/>
		<polygon class="st0" points="171.1,65.8 109.5,65.8 73.9,3.8 73.9,3.6 135.3,3.7 135.3,3.8 		"/>
		<polygon class="st1" points="73.9,3.8 109.5,65.8 104.2,65.8 104.2,65.5 68.5,3.8 68.5,3.6 73.9,3.6 		"/>
		<polygon class="st0" points="104.2,65.5 104.2,65.8 39.9,65.8 10.7,15.2 4,3.6 68.5,3.6 68.5,3.8 		"/>
		<polygon class="st2" points="40.2,69.6 39.7,69.9 0,16 0.1,16 9.2,16 		"/>
		<polygon class="st1" points="171.1,65.8 176.3,65.8 237.5,65.8 243,65.8 306.8,65.8 307.2,66.3 307.9,65.9 310.6,70.4 40.5,70.4 
			40.5,70.2 40.2,69.6 40.2,69.6 9.2,16 9.3,16 10.7,15.2 39.9,65.8 104.2,65.8 109.5,65.8 		"/>
		<polygon class="st1" points="271,3.8 207.2,3.7 201.8,3.7 140.4,3.7 135.3,3.7 73.9,3.6 68.5,3.6 4,3.6 10.7,15.2 9.3,16 9.2,16 
			0.1,0.3 0.1,0 270.1,0 270.1,0.4 307.9,65.9 307.2,66.3 306.8,65.8 		"/>
		<polygon class="st3" points="9.2,16 0.1,16 0.1,0.3 		"/>
	</g>
</g>
<g id="XMLID_87_">
	<g>
		<path class="st1" d="M754.6,368.8l-92.4-0.2v0.6l35.6,61.6h92.6L754.6,368.8z M696.5,434.6l-0.2,0.1l-0.1-0.1h0l-31.3-54.1
			l-8.8-15.2V365l98.9,0l40.3,69.6L696.5,434.6L696.5,434.6z"/>
		<polygon class="st0" points="790.4,430.8 697.8,430.8 662.2,369.2 662.2,368.6 754.6,368.8 		"/>
		<polygon class="st2" points="696.1,434.6 695.7,434.9 656.1,381.1 656.1,380.6 664.7,380.6 664.9,380.5 		"/>
		<polygon class="st3" points="656.1,365.3 664.9,380.5 664.7,380.6 656.1,380.6 		"/>
	</g>
</g>
</svg>
