<?xml version="1.0" encoding="utf-8"?>
<!-- Generator: Adobe Illustrator 19.2.1, SVG Export Plug-In . SVG Version: 6.00 Build 0)  -->
<svg version="1.1" id="Layer_1" xmlns="http://www.w3.org/2000/svg" xmlns:xlink="http://www.w3.org/1999/xlink" x="0px" y="0px"
	 viewBox="0 0 42.3 16.8" style="enable-background:new 0 0 42.3 16.8;" xml:space="preserve">
<style type="text/css">
	.st0{fill:none;stroke:#C0E5E7;stroke-miterlimit:10;}
</style>
<g>
	<path class="st0" d="M21.2,16.7c0.3-6.2,9-25.4,20.7-11"/>
	<path class="st0" d="M21.2,16.7c0.2-6.2,6.9-25.4,15.8-11"/>
	<path class="st0" d="M21.2,16.7c0.2-6.2,4.6-25.4,10.7-11"/>
	<path class="st0" d="M21.2,16.7c0.1-6.2,2.8-25.4,6.5-11"/>
	<path class="st0" d="M21.2,16.7c0-6.2,1-25.4,2.3-11"/>
	<path class="st0" d="M20.2,16.7c0-6.2,0.2-25.4,0.4-11"/>
</g>
<g>
	<path class="st0" d="M21.1,16.7c-0.3-6.2-9-25.4-20.7-11"/>
	<path class="st0" d="M21.1,16.7c-0.2-6.2-6.9-25.4-15.8-11"/>
	<path class="st0" d="M21.1,16.7c-0.2-6.2-4.6-25.4-10.7-11"/>
	<path class="st0" d="M21.1,16.7c-0.1-6.2-2.8-25.4-6.5-11"/>
	<path class="st0" d="M21.1,16.7c0-6.2-1-25.4-2.3-11"/>
	<path class="st0" d="M22.1,16.7c0-6.2-0.2-25.4-0.4-11"/>
</g>
</svg>
