<?xml version="1.0" encoding="utf-8"?>
<!-- Generator: Adobe Illustrator 16.0.0, SVG Export Plug-In . SVG Version: 6.00 Build 0)  -->
<!DOCTYPE svg PUBLIC "-//W3C//DTD SVG 1.1//EN" "http://www.w3.org/Graphics/SVG/1.1/DTD/svg11.dtd">
<svg version="1.1" id="Layer_1" xmlns="http://www.w3.org/2000/svg" xmlns:xlink="http://www.w3.org/1999/xlink" x="0px" y="0px"
	 width="24.057px" height="33.9px" viewBox="0 0 24.057 33.9" enable-background="new 0 0 24.057 33.9" xml:space="preserve">
<g id="XMLID_69_">
	<g>
		<path fill="#5A3B00" d="M16.519,15.259c0.152-0.648,0.32-1.296,0.521-1.952C16.935,14.194,16.752,14.826,16.519,15.259z"/>
		<path fill="#5A3B00" d="M16.519,15.259c-0.208,0.872-0.368,1.744-0.496,2.591h-0.008c-0.944,6.151-0.096,11.584,0.224,15.456
			c-2.544,0.399-5.456,1.111-4.654,0c0.326-3.912,1.184-9.408,0.19-15.64c-0.224-1.416-0.544-2.872-0.992-4.36
			C11.552,13.138,15.071,17.914,16.519,15.259z"/>
		<path fill="#3E6549" d="M4.855,2.331c1.288-2.4,7.729-4.024,8.872,0.712c0.977-0.554,2.112-0.89,3.2-0.824l0.008-0.048
			c2.272-1.602,9.36,1.792,6.416,6.52l-0.28-0.008c-0.029,0.904-0.229,1.816-0.64,2.592c1.424,2.376-1.521,9.185-6.28,6.601
			l-0.128-0.024c0.128-0.847,0.288-1.719,0.496-2.591c0.232-0.434,0.416-1.064,0.521-1.952c-0.198,0.656-0.366,1.304-0.521,1.952
			c-1.448,2.656-4.968-2.12-5.736-1.952c0.448,1.488,0.77,2.944,0.992,4.36l-0.264,0.04C9.83,19.45,3.83,18.154,3.655,14.34
			l-0.176,0.008c-2.768-0.264-5.912-7.472-0.592-9.128l0.144,0.04C3.367,4.163,3.991,3.074,4.855,2.331z"/>
	</g>
	<g>
		<path fill="none" stroke="#B8C698" stroke-miterlimit="10" d="M3.983,12.507c-0.256,0.664-0.352,1.271-0.328,1.832
			c0.178,3.814,6.178,5.11,7.856,3.368"/>
		<path fill="none" stroke="#B8C698" stroke-miterlimit="10" d="M9.431,1.946c-1.84-1.022-3.424-0.624-4.576,0.386
			C3.991,3.074,3.367,4.164,3.031,5.26C2.625,6.588,2.655,7.924,3.239,8.676"/>
		<path fill="none" stroke="#B8C698" stroke-miterlimit="10" d="M20.239,4.73c-0.728-1.712-1.976-2.424-3.312-2.512
			c-1.088-0.064-2.226,0.271-3.2,0.824c-1.44,0.808-2.512,2.08-2.512,3.176"/>
		<path fill="none" stroke="#B8C698" stroke-miterlimit="10" d="M18.351,13.299c2.072,0.256,3.376-0.68,4.08-2.024
			c0.408-0.774,0.608-1.688,0.64-2.592c0.064-1.712-0.496-3.376-1.485-3.944"/>
		<path fill="none" stroke="#B8C698" stroke-miterlimit="10" d="M22.431,11.274c-0.048-0.07-0.088-0.136-0.136-0.19"/>
	</g>
</g>
</svg>
