<?xml version="1.0" encoding="utf-8"?>
<!-- Generator: Adobe Illustrator 19.2.1, SVG Export Plug-In . SVG Version: 6.00 Build 0)  -->
<svg version="1.1" id="Layer_1" xmlns="http://www.w3.org/2000/svg" xmlns:xlink="http://www.w3.org/1999/xlink" x="0px" y="0px"
	 viewBox="0 0 38 53.4" style="enable-background:new 0 0 38 53.4;" xml:space="preserve">
<style type="text/css">
	.st0{fill:#3E6549;}
	.st1{fill:#5A3B00;}
	.st2{fill:none;stroke:#B8C698;stroke-miterlimit:10;}
</style>
<g id="XMLID_96_">
	<g>
		<path class="st0" d="M28.9,21c3.2,0.4,5.3-1,6.4-3.2c2.2,3.7-2.4,14.3-9.8,10.3l-0.2,0c0.2-1.3,0.4-2.7,0.8-4
			c0.4-0.7,0.6-1.7,0.8-3L28.9,21z"/>
		<path class="st1" d="M26,24c0.2-1,0.5-2,0.8-3C26.7,22.4,26.4,23.4,26,24z"/>
		<path class="st1" d="M26,24c-0.3,1.4-0.6,2.7-0.8,4c-1.5,9.6-0.2,18.1,0.3,24.1c-4,0.6-8.5,1.7-7.3,0c0.5-6.1,1.8-14.7,0.3-24.4
			c-0.3-2.2-0.8-4.5-1.5-6.8C18.3,20.7,23.8,28.2,26,24z"/>
		<path class="st0" d="M26.7,3.6c3.5-2.5,14.6,2.8,10,10.2l-0.4,0c0,1.4-0.4,2.8-1,4c-1.1,2.1-3.1,3.6-6.4,3.2l-2,0
			c-0.3,1-0.6,2-0.8,3c-2.3,4.2-7.8-3.3-8.9-3c0.7,2.3,1.2,4.6,1.5,6.8l-0.4,0.1c-2.6,2.7-12,0.7-12.3-5.3l-0.3,0
			C1.4,22.2-3.5,11,4.8,8.4L5,8.4c0.5-1.7,1.5-3.4,2.8-4.6c2-3.7,12.1-6.3,13.8,1.1C23.2,4.1,25,3.6,26.7,3.6L26.7,3.6z"/>
	</g>
	<g>
		<path class="st2" d="M6.5,19.8c-0.4,1-0.5,2-0.5,2.9c0.3,6,9.6,8,12.3,5.3"/>
		<path class="st2" d="M15,3.3c-2.9-1.6-5.3-1-7.1,0.6C6.5,5.1,5.5,6.7,5,8.4c-0.6,2.1-0.6,4.2,0.3,5.3"/>
		<path class="st2" d="M31.8,7.6c-1.1-2.7-3.1-3.8-5.2-3.9c-1.7-0.1-3.5,0.4-5,1.3c-2.2,1.3-3.9,3.2-3.9,5"/>
		<path class="st2" d="M28.9,21c3.2,0.4,5.3-1,6.4-3.2c0.6-1.2,0.9-2.6,1-4c0.1-2.7-0.8-5.3-2.3-6.2"/>
		<path class="st2" d="M35.2,17.8c-0.1-0.1-0.1-0.2-0.2-0.3"/>
	</g>
</g>
</svg>
