<?xml version="1.0" encoding="utf-8"?>
<!-- Generator: Adobe Illustrator 16.0.0, SVG Export Plug-In . SVG Version: 6.00 Build 0)  -->
<!DOCTYPE svg PUBLIC "-//W3C//DTD SVG 1.1//EN" "http://www.w3.org/Graphics/SVG/1.1/DTD/svg11.dtd">
<svg version="1.1" id="Layer_1" xmlns="http://www.w3.org/2000/svg" xmlns:xlink="http://www.w3.org/1999/xlink" x="0px" y="0px"
	 width="504.596px" height="115.703px" viewBox="0 0 504.596 115.703" enable-background="new 0 0 504.596 115.703"
	 xml:space="preserve">
<g>
	<g id="XMLID_41_">
		<g>
			<path fill="#E1E0E2" d="M10.908,24.583l-0.136,0.104c-3.92-5.249-22.96-24.516,1.44-24.516h406.12l86.264,115.415l-0.384,0.287
				H79.14L10.908,24.583z"/>
		</g>
		<g>
		</g>
	</g>
	<g id="XMLID_40_">
		<g>
			<path fill="#659357" d="M215.012,115.773l-120.616-0.208l-66.632-89.4h32.448v0.072
				C76.612,26.237,190.212,65.846,215.012,115.773z"/>
		</g>
		<g>
			<polyline fill="none" stroke="#659357" stroke-miterlimit="10" points="94.396,115.565 27.764,26.166 27.34,25.597 			"/>
			<polyline fill="none" stroke="#659357" stroke-miterlimit="10" points="27.412,26.166 27.764,26.166 60.212,26.166 			"/>
			<path fill="none" stroke="#659357" stroke-miterlimit="10" d="M215.012,115.773c-24.8-49.928-138.4-89.536-154.8-89.536"/>
			<line fill="none" stroke="#659357" stroke-miterlimit="10" x1="94.396" y1="115.565" x2="215.012" y2="115.773"/>
		</g>
	</g>
	<g id="XMLID_39_">
		<g>
			<polygon fill="#659357" points="326.796,101.365 305.812,101.365 305.78,101.405 251.108,54.317 251.412,53.965 273.94,30.773 
				274.092,30.661 			"/>
		</g>
		<g>
		</g>
	</g>
</g>
</svg>
