<?xml version="1.0" encoding="utf-8"?>
<!-- Generator: Adobe Illustrator 16.0.0, SVG Export Plug-In . SVG Version: 6.00 Build 0)  -->
<!DOCTYPE svg PUBLIC "-//W3C//DTD SVG 1.1//EN" "http://www.w3.org/Graphics/SVG/1.1/DTD/svg11.dtd">
<svg version="1.1" id="Layer_1" xmlns="http://www.w3.org/2000/svg" xmlns:xlink="http://www.w3.org/1999/xlink" x="0px" y="0px"
	 width="152.718px" height="75.387px" viewBox="0 0 152.718 75.387" enable-background="new 0 0 152.718 75.387"
	 xml:space="preserve">
<g id="XMLID_19_">
	<g>
		<path fill="#F4F4F5" d="M15.015,39.147l-0.139-0.479c-1.301-5.62,5.379-29.46,27.969-23.98c4.111-9.318,54.09-32.278,80.08,12.7
			l0.1,0.771c8.643-1.41,16.98,3.778,20.4,18.229l-0.059,0.14c10.357,4.851,13.77,22.261,0.059,28.359h-135
			C-0.344,74.887-6.805,45.656,15.015,39.147z"/>
	</g>
	<g>
		<path fill="none" stroke="#7A7A7B" stroke-miterlimit="10" d="M42.845,14.687c-22.59-5.479-29.27,18.36-27.969,23.98"/>
		<path fill="none" stroke="#7A7A7B" stroke-miterlimit="10" d="M51.425,17.887c-3.09-1.52-5.939-2.56-8.58-3.19"/>
		<path fill="none" stroke="#7A7A7B" stroke-miterlimit="10" d="M122.925,27.387c-25.99-44.98-75.969-22.02-80.08-12.7v0.01"/>
		<path fill="none" stroke="#7A7A7B" stroke-miterlimit="10" d="M143.425,46.387c-3.42-14.45-11.76-19.64-20.4-18.23
			c-2.719,0.45-5.469,1.552-8.1,3.23"/>
		<path fill="none" stroke="#7A7A7B" stroke-miterlimit="10" d="M8.425,74.887h135c13.711-6.1,10.301-23.51-0.059-28.36
			c-3.24-1.52-7.15-1.81-11.441-0.14"/>
	</g>
</g>
</svg>
