<?xml version="1.0" encoding="utf-8"?>
<!-- Generator: Adobe Illustrator 16.0.0, SVG Export Plug-In . SVG Version: 6.00 Build 0)  -->
<!DOCTYPE svg PUBLIC "-//W3C//DTD SVG 1.1//EN" "http://www.w3.org/Graphics/SVG/1.1/DTD/svg11.dtd">
<svg version="1.1" id="Layer_1" xmlns="http://www.w3.org/2000/svg" xmlns:xlink="http://www.w3.org/1999/xlink" x="0px" y="0px"
	 width="310.48px" height="70.407px" viewBox="0 0 310.48 70.407" enable-background="new 0 0 310.48 70.407" xml:space="preserve">
<g id="XMLID_88_">
	<g>
		<polygon fill="#0A0E42" points="271.456,4.96 307.296,66.943 243.424,66.943 243.424,66.728 207.687,4.96 207.687,4.912 		"/>
		<polygon fill="#E9E9EA" points="243.424,66.728 243.424,66.943 237.944,66.943 237.944,66.728 202.224,4.96 202.224,4.912 
			207.687,4.912 207.687,4.96 		"/>
		<polygon fill="#0A0E42" points="237.944,66.728 237.944,66.943 176.712,66.943 140.864,4.96 140.864,4.863 202.224,4.912 
			202.224,4.96 		"/>
		<polygon fill="#E9E9EA" points="140.864,4.96 176.712,66.943 171.584,66.943 135.736,4.96 135.736,4.863 140.864,4.863 		"/>
		<polygon fill="#0A0E42" points="171.584,66.943 109.904,66.943 74.36,4.96 74.36,4.816 135.736,4.863 135.736,4.96 		"/>
		<polygon fill="#E9E9EA" points="74.36,4.96 109.904,66.943 104.696,66.943 104.696,66.728 68.976,4.96 68.976,4.816 74.36,4.816 
					"/>
		<polygon fill="#0A0E42" points="104.696,66.728 104.696,66.943 40.36,66.943 10.471,15.271 4.4,4.767 68.976,4.816 68.976,4.96 		
			"/>
		<polygon fill="#E9E9EA" points="40.36,66.943 104.696,66.943 109.904,66.943 171.584,66.943 176.712,66.943 237.944,66.943 
			243.424,66.943 307.296,66.943 271.456,4.96 272.336,4.447 310.48,70.408 40.4,70.408 40.4,70.16 40.095,69.623 40.088,69.623 
			9.088,16.007 9.2,16.007 10.471,15.271 		"/>
		<polygon fill="#888388" points="40.088,69.623 39.599,69.912 0,16.144 0,16.007 9.088,16.007 		"/>
		<polygon fill="#E9E9EA" points="4.4,4.767 10.471,15.271 9.2,16.007 9.088,16.007 0,0.296 0,0 270,0.015 270,0.408 272.336,4.447 
			271.456,4.96 207.687,4.912 202.224,4.912 140.864,4.863 135.736,4.863 74.36,4.816 68.976,4.816 		"/>
		<polygon fill="#393139" points="9.088,16.007 0,16.007 0,0.296 		"/>
	</g>
</g>
</svg>
